<svg width="212" height="66" viewBox="0 0 212 66" fill="none" xmlns="http://www.w3.org/2000/svg">
<path d="M22.825 51.66C19.7817 51.66 17.0317 51.2567 14.575 50.45C12.1183 49.6433 10.01 48.47 8.25 46.93C6.52667 45.3533 5.18833 43.4283 4.235 41.155C3.31833 38.8817 2.86 36.315 2.86 33.455C2.86 30.5583 3.355 27.955 4.345 25.645C5.335 23.335 6.74667 21.3733 8.58 19.76C10.4133 18.11 12.595 16.8633 15.125 16.02C17.655 15.14 20.4417 14.7 23.485 14.7C27.0417 14.7 30.1217 15.25 32.725 16.35C35.3283 17.45 37.4 18.99 38.94 20.97C40.48 22.9133 41.36 25.2233 41.58 27.9H35.805C35.3283 26.3233 34.54 24.9667 33.44 23.83C32.3767 22.6933 31.0017 21.8133 29.315 21.19C27.665 20.53 25.7217 20.2 23.485 20.2C20.5517 20.2 18.0033 20.7683 15.84 21.905C13.7133 23.005 12.0817 24.5633 10.945 26.58C9.80833 28.56 9.24 30.8517 9.24 33.455C9.24 36.0583 9.735 38.3133 10.725 40.22C11.7517 42.09 13.2917 43.5567 15.345 44.62C17.3983 45.6467 19.9467 46.16 22.99 46.16C25.3367 46.16 27.39 45.8117 29.15 45.115C30.9467 44.3817 32.4317 43.3733 33.605 42.09C34.7783 40.8067 35.6033 39.3217 36.08 37.635L38.885 36.975C38.3717 41.705 36.685 45.335 33.825 47.865C31.0017 50.395 27.335 51.66 22.825 51.66ZM37.4 51C37.4 49.8267 37.455 48.5067 37.565 47.04C37.675 45.5367 37.8033 44.015 37.95 42.475C38.1333 40.8983 38.2983 39.4867 38.445 38.24H23.705V33.73H42.955V51H37.4ZM56.9125 35.82V45.61H81.9375V51H50.6425V15.36H81.8825V20.75H56.9125V30.65H77.3725V35.82H56.9125ZM94.4793 42.64V37.305H115.709V42.64H94.4793ZM86.2293 51L101.794 15.36H108.504L124.179 51H117.414L103.774 18.825H106.524L92.9393 51H86.2293ZM129.49 51V15.36H150.555C153.195 15.36 155.487 15.745 157.43 16.515C159.374 17.2483 160.877 18.4033 161.94 19.98C163.004 21.52 163.535 23.5 163.535 25.92C163.535 27.5333 163.26 28.9267 162.71 30.1C162.16 31.2367 161.39 32.1717 160.4 32.905C159.41 33.6383 158.255 34.2067 156.935 34.61C155.652 35.0133 154.277 35.27 152.81 35.38L152.26 34.995C154.607 35.0317 156.55 35.2517 158.09 35.655C159.63 36.0217 160.804 36.7367 161.61 37.8C162.417 38.8267 162.82 40.3483 162.82 42.365V51H156.605V42.695C156.605 41.3017 156.349 40.22 155.835 39.45C155.359 38.6433 154.515 38.0933 153.305 37.8C152.132 37.47 150.445 37.305 148.245 37.305H135.76V51H129.49ZM135.76 32.19H150.555C152.755 32.19 154.424 31.64 155.56 30.54C156.697 29.44 157.265 27.9917 157.265 26.195C157.265 24.4717 156.697 23.1517 155.56 22.235C154.424 21.2817 152.755 20.805 150.555 20.805H135.76V32.19Z" fill="#222222"/>
<g clip-path="url(#clip0_20_80)">
<path d="M189 16.049C179.102 16.049 171.049 24.1017 171.049 34.0001C171.049 43.8985 179.102 51.9513 189 51.9513C198.898 51.9513 206.951 43.8985 206.951 34.0001C206.951 24.1017 198.898 16.049 189 16.049ZM189 49.7073C180.339 49.7073 173.293 42.6609 173.293 34.0001C173.293 25.3393 180.339 18.2929 189 18.2929C197.661 18.2929 204.707 25.3387 204.707 34.0001C204.707 42.6616 197.661 49.7073 189 49.7073Z" fill="#FFB700"/>
<path d="M192.201 16.7743L186.592 11.1646C186.431 11.0036 186.189 10.9559 185.98 11.0429C185.771 11.1298 185.634 11.3346 185.634 11.5612V17.1709C185.634 17.4806 185.885 17.7319 186.195 17.7319C186.505 17.7319 186.756 17.4806 186.756 17.1709V12.9154L191.408 17.5676C191.518 17.677 191.661 17.7319 191.805 17.7319C191.948 17.7319 192.092 17.6774 192.201 17.5676C192.421 17.3482 192.421 16.9936 192.201 16.7743Z" fill="#FFB700"/>
<path d="M191.805 50.2683C191.495 50.2683 191.244 50.5191 191.244 50.8293V55.0848L186.592 50.4326C186.372 50.2133 186.018 50.2133 185.798 50.4326C185.579 50.6519 185.579 51.0066 185.798 51.2259L191.408 56.8356C191.515 56.9428 191.659 56.9999 191.805 56.9999C191.877 56.9999 191.95 56.9864 192.02 56.9572C192.229 56.8708 192.366 56.6655 192.366 56.4389V50.8293C192.366 50.5191 192.115 50.2683 191.805 50.2683Z" fill="#FFB700"/>
<path d="M172.171 36.244H167.915L172.567 31.5918C172.787 31.3725 172.787 31.0179 172.567 30.7986C172.348 30.5793 171.994 30.5793 171.774 30.7986L166.165 36.4084C166.004 36.5688 165.956 36.8101 166.043 37.0199C166.13 37.2296 166.334 37.366 166.561 37.366H172.171C172.48 37.366 172.732 37.1153 172.732 36.805C172.732 36.4947 172.48 36.244 172.171 36.244Z" fill="#FFB700"/>
<path d="M211.957 30.9804C211.871 30.7712 211.666 30.6343 211.439 30.6343H205.829C205.519 30.6343 205.268 30.8856 205.268 31.1953C205.268 31.505 205.519 31.7563 205.829 31.7563H210.085L205.433 36.4085C205.213 36.6278 205.213 36.9824 205.433 37.2017C205.542 37.3111 205.686 37.366 205.829 37.366C205.973 37.366 206.116 37.3116 206.226 37.2017L211.835 31.592C211.996 31.4314 212.044 31.1902 211.957 30.9804Z" fill="#FFB700"/>
<path d="M179.071 19.5831H171.161C170.933 19.5831 170.729 19.7205 170.642 19.9314C170.556 20.1417 170.605 20.3836 170.767 20.5434L174.75 24.4702C174.86 24.5779 175.002 24.6317 175.144 24.6317C175.289 24.6317 175.433 24.5757 175.543 24.4645C175.76 24.244 175.758 23.889 175.538 23.6713L172.529 20.7049H179.071C179.38 20.7049 179.632 20.4536 179.632 20.1439C179.632 19.8345 179.38 19.5831 179.071 19.5831Z" fill="#FFB700"/>
<path d="M207.233 47.4567L203.25 43.5299C203.029 43.3128 202.674 43.3144 202.457 43.5355C202.24 43.7559 202.241 44.111 202.462 44.3287L205.471 47.2951H198.929C198.619 47.2951 198.368 47.5459 198.368 47.8561C198.368 48.1663 198.619 48.4171 198.929 48.4171H206.839C207.066 48.4171 207.271 48.2796 207.358 48.0693C207.444 47.8584 207.395 47.6166 207.233 47.4567Z" fill="#FFB700"/>
<path d="M179.465 47.4567C179.244 47.239 178.888 47.2412 178.671 47.4622L175.705 50.4707V43.9292C175.705 43.619 175.454 43.3683 175.144 43.3683C174.834 43.3683 174.583 43.619 174.583 43.9292V51.8389C174.583 52.0662 174.721 52.272 174.931 52.3579C175 52.3864 175.072 52.3999 175.144 52.3999C175.291 52.3999 175.436 52.3416 175.543 52.2327L179.47 48.2498C179.687 48.0294 179.685 47.6744 179.465 47.4567Z" fill="#FFB700"/>
<path d="M203.069 15.6423C202.858 15.5565 202.616 15.6053 202.457 15.7674L198.53 19.7503C198.313 19.9708 198.314 20.3258 198.535 20.5435C198.756 20.7606 199.111 20.759 199.329 20.5379L202.295 17.5295V24.0709C202.295 24.3806 202.546 24.6319 202.856 24.6319C203.166 24.6319 203.417 24.3806 203.417 24.0709V16.1611C203.417 15.934 203.28 15.7286 203.069 15.6423Z" fill="#FFB700"/>
<path d="M185.171 16.9308L177.766 13.9576C177.555 13.8735 177.314 13.9234 177.154 14.0872C176.996 14.2504 176.951 14.4934 177.042 14.702L179.286 19.8629C179.378 20.0744 179.584 20.2007 179.801 20.2007C179.875 20.2007 179.951 20.1855 180.024 20.1536C180.308 20.0301 180.438 19.6998 180.314 19.4153L178.616 15.5082L184.753 17.9725C185.041 18.0865 185.367 17.9485 185.483 17.6606C185.598 17.3728 185.459 17.0464 185.171 16.9308Z" fill="#FFB700"/>
<path d="M200.958 53.2986L198.714 48.1377C198.591 47.8539 198.262 47.722 197.977 47.8465C197.692 47.9693 197.562 48.3003 197.685 48.5842L199.384 52.4919L193.248 50.0282C192.958 49.9132 192.633 50.0522 192.518 50.3395C192.403 50.6272 192.542 50.9543 192.83 51.0693L200.234 54.0425C200.302 54.0699 200.374 54.0829 200.444 54.0829C200.592 54.0829 200.739 54.0239 200.846 53.9134C201.005 53.7503 201.049 53.5073 200.958 53.2986Z" fill="#FFB700"/>
<path d="M175.153 42.9774C175.03 42.6924 174.699 42.5622 174.415 42.6862L170.508 44.3849L172.972 38.2489C173.087 37.9612 172.948 37.6341 172.66 37.5191C172.373 37.4041 172.046 37.5432 171.931 37.8304L168.957 45.2352C168.873 45.4467 168.924 45.6885 169.087 45.8467C169.194 45.9505 169.335 46.0054 169.478 46.0054C169.554 46.0054 169.63 45.9897 169.702 45.9589L174.863 43.715C175.147 43.5922 175.277 43.2612 175.153 42.9774Z" fill="#FFB700"/>
<path d="M208.913 22.154C208.75 21.9953 208.506 21.9515 208.299 22.0418L203.138 24.2857C202.853 24.4092 202.723 24.7395 202.846 25.024C202.97 25.3078 203.299 25.4385 203.584 25.3145L207.492 23.6159L205.028 29.7518C204.913 30.0396 205.052 30.3661 205.339 30.4816C205.408 30.5091 205.479 30.522 205.549 30.522C205.771 30.522 205.981 30.3891 206.069 30.1703L209.042 22.7654C209.128 22.554 209.077 22.3128 208.913 22.154Z" fill="#FFB700"/>
<path d="M174.93 24.9146C174.807 24.6296 174.476 24.4978 174.193 24.6211L166.9 27.7626C166.692 27.8529 166.558 28.0588 166.561 28.286C166.564 28.5127 166.704 28.7157 166.915 28.7998L172.132 30.8754C172.2 30.9024 172.27 30.9152 172.339 30.9152C172.562 30.9152 172.773 30.7812 172.861 30.5612C172.975 30.2734 172.835 29.947 172.547 29.8325L168.588 28.2573L174.636 25.6516C174.921 25.5288 175.052 25.199 174.93 24.9146Z" fill="#FFB700"/>
<path d="M211.085 39.2009L205.868 37.1253C205.578 37.0093 205.253 37.1511 205.139 37.4389C205.024 37.7272 205.165 38.0531 205.453 38.1676L209.412 39.7434L203.363 42.3491C203.079 42.4708 202.947 42.8013 203.07 43.0856C203.161 43.2971 203.368 43.4244 203.585 43.4244C203.66 43.4244 203.735 43.4099 203.807 43.3784L211.1 40.237C211.308 40.1472 211.442 39.9408 211.438 39.7142C211.435 39.4875 211.295 39.2844 211.085 39.2009Z" fill="#FFB700"/>
<path d="M185.562 50.1398C185.274 50.0243 184.947 50.1656 184.833 50.4534L183.258 54.4121L180.652 48.3637C180.529 48.0799 180.199 47.9469 179.915 48.0709C179.631 48.1927 179.499 48.5231 179.622 48.8075L182.763 56.1001C182.852 56.306 183.054 56.4389 183.278 56.4389C183.28 56.4389 183.283 56.4389 183.287 56.4389C183.514 56.4356 183.717 56.2959 183.8 56.0855L185.876 50.8685C185.99 50.5802 185.85 50.2543 185.562 50.1398Z" fill="#FFB700"/>
<path d="M198.378 19.1933L195.236 11.9006C195.148 11.6947 194.945 11.5618 194.721 11.5618C194.719 11.5618 194.716 11.5618 194.714 11.5618C194.487 11.5646 194.284 11.7043 194.2 11.9152L192.125 17.1323C192.01 17.42 192.15 17.7465 192.438 17.861C192.729 17.976 193.053 17.8347 193.167 17.5468L194.743 13.588L197.348 19.637C197.439 19.849 197.646 19.9764 197.863 19.9764C197.938 19.9764 198.013 19.9612 198.085 19.9304C198.369 19.8075 198.501 19.4776 198.378 19.1933Z" fill="#FFB700"/>
<path d="M189 27.2685C185.288 27.2685 182.268 30.2882 182.268 34.0001C182.268 37.7121 185.288 40.7318 189 40.7318C192.712 40.7318 195.732 37.7121 195.732 34.0001C195.732 30.2882 192.712 27.2685 189 27.2685ZM189 38.4879C186.526 38.4879 184.512 36.4746 184.512 34.0001C184.512 31.5257 186.526 29.5124 189 29.5124C191.474 29.5124 193.488 31.5257 193.488 34.0001C193.488 36.4746 191.474 38.4879 189 38.4879Z" fill="#222222"/>
<path d="M189 22.2197C182.504 22.2197 177.22 27.5041 177.22 34.0001C177.22 34.3098 177.471 34.5611 177.781 34.5611C178.09 34.5611 178.341 34.3098 178.341 34.0001C178.341 28.1229 183.123 23.3417 189 23.3417C189.31 23.3417 189.561 23.0904 189.561 22.7807C189.561 22.471 189.31 22.2197 189 22.2197Z" fill="#FFB700"/>
<path d="M200.219 33.4391C199.909 33.4391 199.658 33.6904 199.658 34.0001C199.658 39.8774 194.877 44.6586 189 44.6586C188.69 44.6586 188.439 44.9093 188.439 45.2196C188.439 45.5298 188.69 45.7806 189 45.7806C195.495 45.7806 200.78 40.4956 200.78 34.0001C200.78 33.6904 200.53 33.4391 200.219 33.4391Z" fill="#FFB700"/>
</g>
<defs>
<clipPath id="clip0_20_80">
<rect width="46" height="46" fill="white" transform="translate(166 11)"/>
</clipPath>
</defs>
</svg>
