<svg width="212" height="66" viewBox="0 0 212 66" fill="none" xmlns="http://www.w3.org/2000/svg">
<path d="M22.825 51.6602C19.7817 51.6602 17.0317 51.2569 14.575 50.4502C12.1183 49.6435 10.01 48.4702 8.24999 46.9302C6.52666 45.3535 5.18832 43.4285 4.23499 41.1552C3.31832 38.8819 2.85999 36.3152 2.85999 33.4552C2.85999 30.5585 3.35499 27.9552 4.34499 25.6452C5.33499 23.3352 6.74666 21.3735 8.57999 19.7602C10.4133 18.1102 12.595 16.8635 15.125 16.0202C17.655 15.1402 20.4417 14.7002 23.485 14.7002C27.0417 14.7002 30.1217 15.2502 32.725 16.3502C35.3283 17.4502 37.4 18.9902 38.94 20.9702C40.48 22.9135 41.36 25.2235 41.58 27.9002H35.805C35.3283 26.3235 34.54 24.9669 33.44 23.8302C32.3767 22.6935 31.0017 21.8135 29.315 21.1902C27.665 20.5302 25.7217 20.2002 23.485 20.2002C20.5517 20.2002 18.0033 20.7685 15.84 21.9052C13.7133 23.0052 12.0817 24.5635 10.945 26.5802C9.80832 28.5602 9.23999 30.8519 9.23999 33.4552C9.23999 36.0585 9.73499 38.3135 10.725 40.2202C11.7517 42.0902 13.2917 43.5569 15.345 44.6202C17.3983 45.6469 19.9467 46.1602 22.99 46.1602C25.3367 46.1602 27.39 45.8119 29.15 45.1152C30.9467 44.3819 32.4317 43.3735 33.605 42.0902C34.7783 40.8069 35.6033 39.3219 36.08 37.6352L38.885 36.9752C38.3717 41.7052 36.685 45.3352 33.825 47.8652C31.0017 50.3952 27.335 51.6602 22.825 51.6602ZM37.4 51.0002C37.4 49.8269 37.455 48.5069 37.565 47.0402C37.675 45.5369 37.8033 44.0152 37.95 42.4752C38.1333 40.8985 38.2983 39.4869 38.445 38.2402H23.705V33.7302H42.955V51.0002H37.4ZM56.9125 35.8202V45.6102H81.9375V51.0002H50.6425V15.3602H81.8825V20.7502H56.9125V30.6502H77.3725V35.8202H56.9125ZM94.4793 42.6402V37.3052H115.709V42.6402H94.4793ZM86.2293 51.0002L101.794 15.3602H108.504L124.179 51.0002H117.414L103.774 18.8252H106.524L92.9393 51.0002H86.2293ZM129.49 51.0002V15.3602H150.555C153.195 15.3602 155.487 15.7452 157.43 16.5152C159.374 17.2485 160.877 18.4035 161.94 19.9802C163.004 21.5202 163.535 23.5002 163.535 25.9202C163.535 27.5335 163.26 28.9269 162.71 30.1002C162.16 31.2369 161.39 32.1719 160.4 32.9052C159.41 33.6385 158.255 34.2069 156.935 34.6102C155.652 35.0135 154.277 35.2702 152.81 35.3802L152.26 34.9952C154.607 35.0319 156.55 35.2519 158.09 35.6552C159.63 36.0219 160.804 36.7369 161.61 37.8002C162.417 38.8269 162.82 40.3485 162.82 42.3652V51.0002H156.605V42.6952C156.605 41.3019 156.349 40.2202 155.835 39.4502C155.359 38.6435 154.515 38.0935 153.305 37.8002C152.132 37.4702 150.445 37.3052 148.245 37.3052H135.76V51.0002H129.49ZM135.76 32.1902H150.555C152.755 32.1902 154.424 31.6402 155.56 30.5402C156.697 29.4402 157.265 27.9919 157.265 26.1952C157.265 24.4719 156.697 23.1519 155.56 22.2352C154.424 21.2819 152.755 20.8052 150.555 20.8052H135.76V32.1902Z" fill="white"/>
<mask id="mask0_117_108" style="mask-type:luminance" maskUnits="userSpaceOnUse" x="166" y="11" width="46" height="46">
<path d="M212 11H166V57H212V11Z" fill="white"/>
</mask>
<g mask="url(#mask0_117_108)">
<path d="M189 16.0488C179.102 16.0488 171.049 24.1015 171.049 33.9999C171.049 43.8983 179.102 51.9511 189 51.9511C198.898 51.9511 206.951 43.8983 206.951 33.9999C206.951 24.1015 198.898 16.0488 189 16.0488ZM189 49.7071C180.339 49.7071 173.293 42.6607 173.293 33.9999C173.293 25.3391 180.339 18.2927 189 18.2927C197.661 18.2927 204.707 25.3385 204.707 33.9999C204.707 42.6614 197.661 49.7071 189 49.7071Z" fill="#FFB700"/>
<path d="M192.201 16.7743L186.592 11.1646C186.431 11.0036 186.189 10.9559 185.98 11.0429C185.771 11.1298 185.634 11.3346 185.634 11.5612V17.1709C185.634 17.4806 185.885 17.7319 186.195 17.7319C186.505 17.7319 186.756 17.4806 186.756 17.1709V12.9154L191.408 17.5676C191.518 17.677 191.661 17.7319 191.805 17.7319C191.948 17.7319 192.092 17.6774 192.201 17.5676C192.421 17.3482 192.421 16.9936 192.201 16.7743Z" fill="#FFB700"/>
<path d="M191.805 50.2682C191.495 50.2682 191.244 50.519 191.244 50.8292V55.0847L186.592 50.4325C186.372 50.2132 186.018 50.2132 185.798 50.4325C185.579 50.6518 185.579 51.0065 185.798 51.2258L191.408 56.8355C191.515 56.9427 191.659 56.9998 191.805 56.9998C191.877 56.9998 191.95 56.9863 192.02 56.9571C192.229 56.8707 192.366 56.6654 192.366 56.4388V50.8292C192.366 50.519 192.115 50.2682 191.805 50.2682Z" fill="#FFB700"/>
<path d="M172.171 36.2442H167.915L172.567 31.592C172.787 31.3727 172.787 31.0181 172.567 30.7988C172.348 30.5795 171.994 30.5795 171.774 30.7988L166.165 36.4086C166.004 36.569 165.956 36.8103 166.043 37.0201C166.13 37.2298 166.334 37.3662 166.561 37.3662H172.171C172.48 37.3662 172.732 37.1155 172.732 36.8052C172.732 36.4949 172.48 36.2442 172.171 36.2442Z" fill="#FFB700"/>
<path d="M211.957 30.9804C211.871 30.7712 211.666 30.6343 211.439 30.6343H205.829C205.519 30.6343 205.268 30.8856 205.268 31.1953C205.268 31.505 205.519 31.7563 205.829 31.7563H210.085L205.433 36.4085C205.213 36.6278 205.213 36.9824 205.433 37.2017C205.542 37.3111 205.686 37.366 205.829 37.366C205.973 37.366 206.116 37.3116 206.226 37.2017L211.835 31.592C211.996 31.4314 212.044 31.1902 211.957 30.9804Z" fill="#FFB700"/>
<path d="M179.071 19.583H171.161C170.933 19.583 170.729 19.7204 170.642 19.9313C170.556 20.1416 170.605 20.3835 170.767 20.5433L174.75 24.4701C174.86 24.5778 175.002 24.6316 175.144 24.6316C175.289 24.6316 175.433 24.5756 175.543 24.4644C175.76 24.2439 175.758 23.8889 175.538 23.6712L172.529 20.7048H179.071C179.38 20.7048 179.632 20.4535 179.632 20.1438C179.632 19.8344 179.38 19.583 179.071 19.583Z" fill="#FFB700"/>
<path d="M207.233 47.4565L203.25 43.5297C203.029 43.3126 202.674 43.3142 202.457 43.5353C202.24 43.7557 202.241 44.1108 202.462 44.3285L205.471 47.2949H198.929C198.619 47.2949 198.368 47.5457 198.368 47.8559C198.368 48.1661 198.619 48.4169 198.929 48.4169H206.839C207.066 48.4169 207.271 48.2794 207.358 48.0691C207.444 47.8582 207.395 47.6164 207.233 47.4565Z" fill="#FFB700"/>
<path d="M179.465 47.4566C179.244 47.2389 178.888 47.2411 178.671 47.4621L175.705 50.4706V43.9291C175.705 43.6189 175.454 43.3682 175.144 43.3682C174.834 43.3682 174.583 43.6189 174.583 43.9291V51.8388C174.583 52.0661 174.721 52.2719 174.931 52.3578C175 52.3863 175.072 52.3998 175.144 52.3998C175.291 52.3998 175.436 52.3415 175.543 52.2326L179.47 48.2497C179.687 48.0293 179.685 47.6743 179.465 47.4566Z" fill="#FFB700"/>
<path d="M203.069 15.6423C202.858 15.5565 202.616 15.6053 202.457 15.7674L198.53 19.7503C198.313 19.9708 198.314 20.3258 198.535 20.5435C198.756 20.7606 199.111 20.759 199.329 20.5379L202.295 17.5295V24.0709C202.295 24.3806 202.546 24.6319 202.856 24.6319C203.166 24.6319 203.417 24.3806 203.417 24.0709V16.1611C203.417 15.934 203.28 15.7286 203.069 15.6423Z" fill="#FFB700"/>
<path d="M185.171 16.9309L177.766 13.9577C177.555 13.8736 177.314 13.9235 177.154 14.0873C176.996 14.2505 176.951 14.4935 177.042 14.7021L179.286 19.863C179.378 20.0745 179.584 20.2008 179.801 20.2008C179.875 20.2008 179.951 20.1856 180.024 20.1537C180.308 20.0302 180.438 19.6999 180.314 19.4154L178.616 15.5083L184.753 17.9726C185.041 18.0866 185.367 17.9486 185.483 17.6607C185.598 17.3729 185.459 17.0465 185.171 16.9309Z" fill="#FFB700"/>
<path d="M200.958 53.2984L198.714 48.1375C198.591 47.8537 198.262 47.7218 197.977 47.8463C197.692 47.9691 197.562 48.3001 197.685 48.584L199.384 52.4917L193.248 50.028C192.958 49.913 192.633 50.052 192.518 50.3393C192.403 50.627 192.542 50.9541 192.83 51.0691L200.234 54.0423C200.302 54.0697 200.374 54.0827 200.444 54.0827C200.592 54.0827 200.739 54.0237 200.846 53.9132C201.005 53.7501 201.049 53.5071 200.958 53.2984Z" fill="#FFB700"/>
<path d="M175.153 42.9772C175.03 42.6922 174.699 42.562 174.415 42.686L170.508 44.3847L172.972 38.2487C173.087 37.961 172.948 37.6339 172.66 37.5189C172.373 37.4039 172.046 37.543 171.931 37.8302L168.957 45.235C168.873 45.4465 168.924 45.6883 169.087 45.8465C169.194 45.9503 169.335 46.0052 169.478 46.0052C169.554 46.0052 169.63 45.9895 169.702 45.9587L174.863 43.7148C175.147 43.592 175.277 43.261 175.153 42.9772Z" fill="#FFB700"/>
<path d="M208.913 22.1542C208.75 21.9955 208.506 21.9517 208.299 22.042L203.138 24.2859C202.853 24.4094 202.723 24.7397 202.846 25.0242C202.97 25.308 203.299 25.4387 203.584 25.3147L207.492 23.6161L205.028 29.752C204.913 30.0398 205.052 30.3663 205.339 30.4818C205.408 30.5093 205.479 30.5222 205.549 30.5222C205.771 30.5222 205.981 30.3893 206.069 30.1705L209.042 22.7656C209.128 22.5542 209.077 22.313 208.913 22.1542Z" fill="#FFB700"/>
<path d="M174.93 24.9145C174.807 24.6295 174.476 24.4977 174.193 24.621L166.9 27.7625C166.692 27.8528 166.558 28.0587 166.561 28.2859C166.564 28.5126 166.704 28.7156 166.915 28.7997L172.132 30.8753C172.2 30.9023 172.27 30.9151 172.339 30.9151C172.562 30.9151 172.773 30.7811 172.861 30.5611C172.975 30.2733 172.835 29.9469 172.547 29.8324L168.588 28.2572L174.636 25.6515C174.921 25.5287 175.052 25.1989 174.93 24.9145Z" fill="#FFB700"/>
<path d="M211.085 39.2011L205.868 37.1255C205.578 37.0095 205.253 37.1513 205.139 37.4391C205.024 37.7274 205.165 38.0533 205.453 38.1678L209.412 39.7436L203.363 42.3493C203.079 42.471 202.947 42.8015 203.07 43.0858C203.161 43.2973 203.368 43.4246 203.585 43.4246C203.66 43.4246 203.735 43.4101 203.807 43.3786L211.1 40.2372C211.308 40.1474 211.442 39.941 211.438 39.7144C211.435 39.4877 211.295 39.2846 211.085 39.2011Z" fill="#FFB700"/>
<path d="M185.562 50.1398C185.274 50.0243 184.947 50.1656 184.833 50.4534L183.258 54.4121L180.652 48.3637C180.529 48.0799 180.199 47.9469 179.915 48.0709C179.631 48.1927 179.499 48.5231 179.622 48.8075L182.763 56.1001C182.852 56.306 183.054 56.4389 183.278 56.4389C183.28 56.4389 183.283 56.4389 183.287 56.4389C183.514 56.4356 183.717 56.2959 183.8 56.0855L185.876 50.8685C185.99 50.5802 185.85 50.2543 185.562 50.1398Z" fill="#FFB700"/>
<path d="M198.378 19.1935L195.236 11.9008C195.148 11.6949 194.945 11.562 194.721 11.562C194.719 11.562 194.716 11.562 194.714 11.562C194.487 11.5648 194.284 11.7045 194.2 11.9154L192.125 17.1325C192.01 17.4202 192.15 17.7467 192.438 17.8612C192.729 17.9762 193.053 17.8349 193.167 17.547L194.743 13.5882L197.348 19.6372C197.439 19.8492 197.646 19.9766 197.863 19.9766C197.938 19.9766 198.013 19.9614 198.085 19.9306C198.369 19.8077 198.501 19.4778 198.378 19.1935Z" fill="#FFB700"/>
<path d="M189 27.2686C185.288 27.2686 182.268 30.2883 182.268 34.0002C182.268 37.7122 185.288 40.7319 189 40.7319C192.712 40.7319 195.732 37.7122 195.732 34.0002C195.732 30.2883 192.712 27.2686 189 27.2686ZM189 38.488C186.526 38.488 184.512 36.4747 184.512 34.0002C184.512 31.5258 186.526 29.5125 189 29.5125C191.474 29.5125 193.488 31.5258 193.488 34.0002C193.488 36.4747 191.474 38.488 189 38.488Z" fill="white"/>
<path d="M189 22.2197C182.504 22.2197 177.22 27.5041 177.22 34.0001C177.22 34.3098 177.471 34.5611 177.781 34.5611C178.09 34.5611 178.341 34.3098 178.341 34.0001C178.341 28.1229 183.123 23.3417 189 23.3417C189.31 23.3417 189.561 23.0904 189.561 22.7807C189.561 22.471 189.31 22.2197 189 22.2197Z" fill="#FFB700"/>
<path d="M200.219 33.439C199.909 33.439 199.658 33.6903 199.658 34C199.658 39.8773 194.877 44.6585 189 44.6585C188.69 44.6585 188.439 44.9092 188.439 45.2195C188.439 45.5297 188.69 45.7805 189 45.7805C195.495 45.7805 200.78 40.4955 200.78 34C200.78 33.6903 200.53 33.439 200.219 33.439Z" fill="#FFB700"/>
</g>
</svg>
