<svg width="18" height="19" viewBox="0 0 18 19" fill="none" xmlns="http://www.w3.org/2000/svg">
<path d="M13.5833 5.83333V5.83333C13.5833 5.83333 13.5833 5.83333 13.5833 5.83333C13.5833 3.30203 11.5313 1.25 8.99998 1.25C8.99998 1.25 8.99998 1.25 8.99998 1.25V1.25C8.99998 1.25 8.99998 1.25 8.99998 1.25C6.46867 1.25 4.41665 3.30203 4.41665 5.83333C4.41665 5.83333 4.41665 5.83333 4.41665 5.83333V5.83333M7.04666 17.75H10.9533C12.3881 17.75 13.1055 17.75 13.7136 17.5573C14.7317 17.2348 15.5849 16.53 16.0939 15.5912C16.398 15.0304 16.5335 14.3259 16.8044 12.9169V12.9169C17.1868 10.9287 17.3779 9.93456 17.2145 9.13358C16.9401 7.78878 16.0148 6.66855 14.746 6.1451C13.9903 5.83333 12.978 5.83333 10.9533 5.83333H7.04666C5.02201 5.83333 4.00968 5.83333 3.25399 6.1451C1.98521 6.66855 1.05988 7.78878 0.785457 9.13358C0.62201 9.93456 0.813184 10.9287 1.19553 12.9169V12.9169C1.4665 14.3259 1.60198 15.0304 1.90602 15.5912C2.41504 16.53 3.2683 17.2348 4.28632 17.5573C4.89441 17.75 5.61183 17.75 7.04666 17.75Z" stroke="white" stroke-width="1.375" stroke-linecap="round" stroke-linejoin="round"/>
</svg>
