<svg width="22" height="22" viewBox="0 0 22 22" fill="none" xmlns="http://www.w3.org/2000/svg">
<path d="M2.75 3.66667C2.75 3.16041 3.16041 2.75 3.66667 2.75H8.70833C9.21459 2.75 9.625 3.16041 9.625 3.66667V8.70833C9.625 9.21459 9.21459 9.625 8.70833 9.625H3.66667C3.16041 9.625 2.75 9.21459 2.75 8.70833V3.66667Z" stroke="#222222" stroke-width="1.375" stroke-linejoin="round"/>
<path d="M2.75 13.2917C2.75 12.7854 3.16041 12.375 3.66667 12.375H8.70833C9.21459 12.375 9.625 12.7854 9.625 13.2917V18.3333C9.625 18.8396 9.21459 19.25 8.70833 19.25H3.66667C3.16041 19.25 2.75 18.8396 2.75 18.3333V13.2917Z" stroke="#222222" stroke-width="1.375" stroke-linejoin="round"/>
<path d="M12.375 3.66667C12.375 3.16041 12.7854 2.75 13.2917 2.75H18.3333C18.8396 2.75 19.25 3.16041 19.25 3.66667V8.70833C19.25 9.21459 18.8396 9.625 18.3333 9.625H13.2917C12.7854 9.625 12.375 9.21459 12.375 8.70833V3.66667Z" stroke="#222222" stroke-width="1.375" stroke-linejoin="round"/>
<path d="M12.375 13.2917C12.375 12.7854 12.7854 12.375 13.2917 12.375H18.3333C18.8396 12.375 19.25 12.7854 19.25 13.2917V18.3333C19.25 18.8396 18.8396 19.25 18.3333 19.25H13.2917C12.7854 19.25 12.375 18.8396 12.375 18.3333V13.2917Z" stroke="#222222" stroke-width="1.375" stroke-linejoin="round"/>
</svg>
