<svg width="30" height="30" viewBox="0 0 30 30" fill="none" xmlns="http://www.w3.org/2000/svg">
<path d="M16.246 10.2991C14.5752 7.7936 12.4508 5.61673 9.98997 3.88555C11.517 3.19624 13.2117 2.8125 14.9978 2.8125C17.2528 2.8125 19.3627 3.42422 21.1731 4.49075C19.8706 6.69757 18.2001 8.66192 16.246 10.2991Z" fill="white"/>
<path d="M17.2347 11.9148C19.4073 10.1366 21.266 7.98875 22.7147 5.56692C24.8624 7.32641 26.3969 9.80348 26.9533 12.6298C23.9695 12.7712 21.1253 13.4519 18.5171 14.5769C18.1427 13.6601 17.7139 12.7713 17.2347 11.9148Z" fill="white"/>
<path d="M19.1591 16.3423C21.629 15.2624 24.3319 14.6151 27.173 14.4969C27.1797 14.663 27.1831 14.83 27.1831 14.9978C27.1831 19.8637 24.3305 24.0653 20.2046 26.0181C20.2741 25.27 20.3096 24.5122 20.3096 23.7464C20.3096 21.1657 19.9064 18.6775 19.1591 16.3423Z" fill="white"/>
<path d="M18.4346 23.7464C18.4346 24.7649 18.3666 25.767 18.2352 26.7487C17.2052 27.0317 16.1198 27.1831 14.9978 27.1831C12.7428 27.1831 10.6329 26.5714 8.8225 25.5049C10.8876 22.0058 13.8776 19.1171 17.4552 17.1753C18.0918 19.2523 18.4346 21.4585 18.4346 23.7464Z" fill="white"/>
<path d="M16.8225 15.3874C12.872 17.4693 9.56625 20.6084 7.28094 24.4287C5.13327 22.6692 3.59877 20.1922 3.04229 17.3658C7.74274 17.1431 12.0946 15.5824 15.7233 13.0566C16.1326 13.8086 16.5001 14.5866 16.8225 15.3874Z" fill="white"/>
<path d="M14.756 11.4449C11.3541 13.8416 7.25566 15.3143 2.8226 15.4987C2.81589 15.3326 2.8125 15.1656 2.8125 14.9978C2.8125 10.8046 4.93002 7.10513 8.15796 4.91169C10.7859 6.60574 13.0367 8.83495 14.756 11.4449Z" fill="white"/>
</svg>
