<svg width="20" height="20" viewBox="0 0 20 20" fill="none" xmlns="http://www.w3.org/2000/svg">
<path d="M2.5 10C2.5 8.05858 2.5 7.08786 2.81717 6.32215C3.24006 5.3012 4.0512 4.49006 5.07215 4.06717C5.83786 3.75 6.80858 3.75 8.75 3.75H11.25C13.1914 3.75 14.1621 3.75 14.9278 4.06717C15.9488 4.49006 16.7599 5.3012 17.1828 6.32215C17.5 7.08786 17.5 8.05858 17.5 10V10C17.5 11.9414 17.5 12.9121 17.1828 13.6778C16.7599 14.6988 15.9488 15.5099 14.9278 15.9328C14.1621 16.25 13.1914 16.25 11.25 16.25H8.75C6.80858 16.25 5.83786 16.25 5.07215 15.9328C4.0512 15.5099 3.24006 14.6988 2.81717 13.6778C2.5 12.9121 2.5 11.9414 2.5 10V10Z" stroke="#FFB700" stroke-width="1.25" stroke-linejoin="round"/>
<path d="M2.5 6.66666L5.39571 8.91877C7.35373 10.4416 8.33274 11.203 9.45106 11.3517C9.81563 11.4002 10.185 11.4002 10.5496 11.3517C11.6679 11.2029 12.6469 10.4415 14.6048 8.91857L17.5 6.66666" stroke="#FFB700" stroke-width="1.25" stroke-linejoin="round"/>
</svg>
