<svg width="30" height="30" viewBox="0 0 30 30" fill="none" xmlns="http://www.w3.org/2000/svg">
<path d="M14.75 27.1875H15.25C16.1874 27.1875 16.6561 27.1875 16.9847 26.9488C17.0908 26.8717 17.1842 26.7784 17.2613 26.6722C17.5 26.3436 17.5 25.8749 17.5 24.9375V17.0312H19C19.9374 17.0312 20.4061 17.0312 20.7347 16.7925C20.8408 16.7154 20.9342 16.6221 21.0113 16.516C21.25 16.1874 21.25 15.7187 21.25 14.7812V14.5417C21.25 13.6042 21.25 13.1355 21.0113 12.8069C20.9342 12.7008 20.8408 12.6075 20.7347 12.5304C20.4061 12.2917 19.9374 12.2917 19 12.2917H17.5V9.42708C17.5 8.84466 17.5 8.55344 17.5952 8.32373C17.722 8.01744 17.9654 7.7741 18.2716 7.64723C18.5014 7.55208 18.7926 7.55208 19.375 7.55208C19.9574 7.55208 20.2486 7.55208 20.4784 7.45693C20.7846 7.33007 21.028 7.08672 21.1548 6.78044C21.25 6.55072 21.25 6.25951 21.25 5.67708V4.75694C21.25 4.10924 21.25 3.78538 21.1329 3.53423C21.0087 3.26788 20.7946 3.05381 20.5283 2.92962C20.2771 2.8125 19.9533 2.8125 19.3056 2.8125C17.0386 2.8125 15.9051 2.8125 15.026 3.2224C14.0938 3.6571 13.3446 4.40634 12.9099 5.33855C12.5 6.21759 12.5 7.35108 12.5 9.61806V12.2917H11C10.0626 12.2917 9.59385 12.2917 9.26527 12.5304C9.15915 12.6075 9.06583 12.7008 8.98873 12.8069C8.75 13.1355 8.75 13.6042 8.75 14.5417V14.7812C8.75 15.7187 8.75 16.1874 8.98873 16.516C9.06583 16.6221 9.15915 16.7154 9.26527 16.7925C9.59385 17.0312 10.0626 17.0312 11 17.0312H12.5V24.9375C12.5 25.8749 12.5 26.3436 12.7387 26.6722C12.8158 26.7784 12.9092 26.8717 13.0153 26.9488C13.3439 27.1875 13.8126 27.1875 14.75 27.1875Z" fill="white"/>
</svg>
