<svg width="60" height="60" viewBox="0 0 60 60" fill="none" xmlns="http://www.w3.org/2000/svg">
<path d="M37.5 26.25H42.5M45 17.5V17.5C45 13.3579 41.6421 10 37.5 10H25.5C18.0005 10 14.2508 10 11.6221 11.9098C10.7732 12.5266 10.0266 13.2732 9.40983 14.1221C7.5 16.7508 7.5 20.5005 7.5 28V37.5M23.75 50H36.25C42.0866 50 45.0049 50 47.214 48.8192C48.9582 47.8869 50.3869 46.4582 51.3192 44.714C52.5 42.5049 52.5 39.5866 52.5 33.75V33.75C52.5 27.9134 52.5 24.9951 51.3192 22.786C50.3869 21.0418 48.9582 19.6131 47.214 18.6808C45.0049 17.5 42.0866 17.5 36.25 17.5H23.75C17.9134 17.5 14.9951 17.5 12.786 18.6808C11.0418 19.6131 9.61312 21.0418 8.68079 22.786C7.5 24.9951 7.5 27.9134 7.5 33.75V33.75C7.5 39.5866 7.5 42.5049 8.68079 44.714C9.61312 46.4582 11.0418 47.8869 12.786 48.8192C14.9951 50 17.9134 50 23.75 50Z" stroke="#222222" stroke-width="2.52" stroke-linecap="round" stroke-linejoin="round"/>
</svg>
