<svg width="60" height="60" viewBox="0 0 60 60" fill="none" xmlns="http://www.w3.org/2000/svg">
<path d="M12.5 40.625V40.625C10.5391 40.625 8.71989 39.4618 8.22549 37.5643C7.75201 35.7471 7.5 33.8405 7.5 31.875C7.5 19.4486 17.5736 9.375 30 9.375C42.4264 9.375 52.5 19.4486 52.5 31.875C52.5 33.8405 52.248 35.7471 51.7745 37.5643C51.2801 39.4618 49.4609 40.625 47.5 40.625V40.625M42.5 50.625V50.625C45.2614 50.625 47.5 48.3864 47.5 45.625V35.625C47.5 32.8636 45.2614 30.625 42.5 30.625V30.625C39.7386 30.625 37.5 32.8636 37.5 35.625V45.625C37.5 48.3864 39.7386 50.625 42.5 50.625ZM17.5 50.625V50.625C20.2614 50.625 22.5 48.3864 22.5 45.625V35.625C22.5 32.8636 20.2614 30.625 17.5 30.625V30.625C14.7386 30.625 12.5 32.8636 12.5 35.625V45.625C12.5 48.3864 14.7386 50.625 17.5 50.625Z" stroke="#222222" stroke-width="2.52" stroke-linecap="round" stroke-linejoin="round"/>
</svg>
