<svg width="60" height="60" viewBox="0 0 60 60" fill="none" xmlns="http://www.w3.org/2000/svg">
<path d="M36.25 25V25C36.25 22.2386 34.0114 20 31.25 20H30M30 20H28.75C25.9886 20 23.75 22.2386 23.75 25V25C23.75 27.7614 25.9886 30 28.75 30H30M30 20V16.25M30 20V30M30 30H31.25C34.0114 30 36.25 32.2386 36.25 35V35C36.25 37.7614 34.0114 40 31.25 40H30M30 30V40M30 40H28.75C25.9886 40 23.75 37.7614 23.75 35V35M30 40V43.75M52.5 30C52.5 42.4264 42.4264 52.5 30 52.5C17.5736 52.5 7.5 42.4264 7.5 30C7.5 17.5736 17.5736 7.5 30 7.5C42.4264 7.5 52.5 17.5736 52.5 30Z" stroke="#222222" stroke-width="2.52" stroke-linecap="round" stroke-linejoin="round"/>
</svg>
