<svg width="60" height="60" viewBox="0 0 60 60" fill="none" xmlns="http://www.w3.org/2000/svg">
<path d="M22.5 42.5C22.5 45.2614 20.2614 47.5 17.5 47.5C14.7386 47.5 12.5 45.2614 12.5 42.5M22.5 42.5C22.5 39.7386 20.2614 37.5 17.5 37.5C14.7386 37.5 12.5 39.7386 12.5 42.5M22.5 42.5H37.5M12.5 42.5V42.5C9.73858 42.5 7.5 40.2614 7.5 37.5V21.5C7.5 17.7503 7.5 15.8754 8.45492 14.5611C8.76331 14.1366 9.1366 13.7633 9.56107 13.4549C10.8754 12.5 12.7503 12.5 16.5 12.5H22.25C25.9997 12.5 27.8746 12.5 29.1889 13.4549C29.6134 13.7633 29.9867 14.1366 30.2951 14.5611C31.25 15.8754 31.25 17.7503 31.25 21.5V25V25C31.25 22.6703 31.25 21.5054 31.6306 20.5866C32.1381 19.3614 33.1114 18.3881 34.3366 17.8806C35.2554 17.5 36.4203 17.5 38.75 17.5H40.6877C43.0862 17.5 44.2854 17.5 45.3025 17.9824C45.6362 18.1407 45.9515 18.3355 46.2423 18.5632C47.1286 19.2572 47.6649 20.3298 48.7375 22.4751L51.5498 28.0997C51.97 28.94 52.1801 29.3602 52.3078 29.8073C52.3502 29.9559 52.3858 30.1064 52.4143 30.2584C52.5 30.7154 52.5 31.1851 52.5 32.1246V37.5C52.5 40.2614 50.2614 42.5 47.5 42.5V42.5M47.5 42.5C47.5 45.2614 45.2614 47.5 42.5 47.5C39.7386 47.5 37.5 45.2614 37.5 42.5M47.5 42.5C47.5 39.7386 45.2614 37.5 42.5 37.5C39.7386 37.5 37.5 39.7386 37.5 42.5M37.5 23.75H42.5L45.625 30H37.5V23.75Z" stroke="#222222" stroke-width="2.52" stroke-linecap="round" stroke-linejoin="round"/>
</svg>
