<svg width="30" height="30" viewBox="0 0 30 30" fill="none" xmlns="http://www.w3.org/2000/svg">
<path fill-rule="evenodd" clip-rule="evenodd" d="M16.5 2.8125H13.5C9.04719 2.8125 6.82079 2.8125 5.26003 3.94646C4.75596 4.31268 4.31268 4.75596 3.94646 5.26003C2.8125 6.82079 2.8125 9.04719 2.8125 13.5V16.5C2.8125 20.9528 2.8125 23.1792 3.94646 24.74C4.31268 25.244 4.75596 25.6873 5.26003 26.0535C6.82079 27.1875 9.04719 27.1875 13.5 27.1875H16.5C20.9528 27.1875 23.1792 27.1875 24.74 26.0535C25.244 25.6873 25.6873 25.244 26.0535 24.74C27.1875 23.1792 27.1875 20.9528 27.1875 16.5V13.5C27.1875 9.04719 27.1875 6.82079 26.0535 5.26003C25.6873 4.75596 25.244 4.31268 24.74 3.94646C23.1792 2.8125 20.9528 2.8125 16.5 2.8125ZM20 15C20 17.7614 17.7614 20 15 20C12.2386 20 10 17.7614 10 15C10 12.2386 12.2386 10 15 10C17.7614 10 20 12.2386 20 15ZM21.875 9.375C22.5654 9.375 23.125 8.81536 23.125 8.125C23.125 7.43464 22.5654 6.875 21.875 6.875C21.1846 6.875 20.625 7.43464 20.625 8.125C20.625 8.81536 21.1846 9.375 21.875 9.375Z" fill="white"/>
</svg>
