<svg width="30" height="30" viewBox="0 0 30 30" fill="none" xmlns="http://www.w3.org/2000/svg">
<path fill-rule="evenodd" clip-rule="evenodd" d="M2.8125 13.5C2.8125 9.04719 2.8125 6.82079 3.94646 5.26003C4.31268 4.75596 4.75596 4.31268 5.26003 3.94646C6.82079 2.8125 9.04719 2.8125 13.5 2.8125H16.5C20.9528 2.8125 23.1792 2.8125 24.74 3.94646C25.244 4.31268 25.6873 4.75596 26.0535 5.26003C27.1875 6.82079 27.1875 9.04719 27.1875 13.5V16.5C27.1875 20.9528 27.1875 23.1792 26.0535 24.74C25.6873 25.244 25.244 25.6873 24.74 26.0535C23.1792 27.1875 20.9528 27.1875 16.5 27.1875H13.5C9.04719 27.1875 6.82079 27.1875 5.26003 26.0535C4.75596 25.6873 4.31268 25.244 3.94646 24.74C2.8125 23.1792 2.8125 20.9528 2.8125 16.5V13.5ZM9.375 12.1875C9.89277 12.1875 10.3125 12.6072 10.3125 13.125V20.625C10.3125 21.1428 9.89277 21.5625 9.375 21.5625C8.85723 21.5625 8.4375 21.1428 8.4375 20.625V13.125C8.4375 12.6072 8.85723 12.1875 9.375 12.1875ZM13.75 12.1875C14.2678 12.1875 14.6875 12.6072 14.6875 13.125V13.4076C15.5966 12.646 16.7682 12.1875 18.0469 12.1875C19.9885 12.1875 21.5625 13.7615 21.5625 15.7031V20.625C21.5625 21.1428 21.1428 21.5625 20.625 21.5625C20.1072 21.5625 19.6875 21.1428 19.6875 20.625V15.7031C19.6875 14.797 18.953 14.0625 18.0469 14.0625C16.1915 14.0625 14.6875 15.5665 14.6875 17.4219V20.625C14.6875 21.1428 14.2678 21.5625 13.75 21.5625C13.2322 21.5625 12.8125 21.1428 12.8125 20.625V17.4219V13.125C12.8125 12.6072 13.2322 12.1875 13.75 12.1875ZM9.375 10.625C10.0654 10.625 10.625 10.0654 10.625 9.375C10.625 8.68464 10.0654 8.125 9.375 8.125C8.68464 8.125 8.125 8.68464 8.125 9.375C8.125 10.0654 8.68464 10.625 9.375 10.625Z" fill="white"/>
</svg>
