<svg width="30" height="30" viewBox="0 0 30 30" fill="none" xmlns="http://www.w3.org/2000/svg">
<path d="M15.0002 3.75C8.78695 3.75 3.74996 8.75 5.00015 15C5.83176 19.1574 9.98166 23.0382 12.6674 25.1709C13.5452 25.8679 13.9841 26.2165 14.6656 26.3085C14.8545 26.334 15.1458 26.334 15.3347 26.3085C16.0162 26.2165 16.4551 25.868 17.333 25.1709C20.0188 23.0382 24.1688 19.1574 25.0002 15C26.25 8.75 21.2134 3.75 15.0002 3.75Z" stroke="#FFB700" stroke-width="1.875" stroke-linejoin="round"/>
<path d="M18.75 13.9375C18.75 16.0086 17.0711 17.6875 15 17.6875C12.9289 17.6875 11.25 16.0086 11.25 13.9375C11.25 11.8664 12.9289 10.1875 15 10.1875C17.0711 10.1875 18.75 11.8664 18.75 13.9375Z" stroke="#FFB700" stroke-width="1.875" stroke-linejoin="round"/>
</svg>
