<svg width="20" height="20" viewBox="0 0 20 20" fill="none" xmlns="http://www.w3.org/2000/svg">
<path d="M3.35427 3.39297L2.91242 2.95094L2.91242 2.95094L3.35427 3.39297ZM7.47906 3.39297L7.92092 2.95094L7.47906 3.39297ZM7.47906 7.51615L7.03721 7.07412L7.47906 7.51615ZM12.4877 12.5229L12.0459 12.0808L12.4877 12.5229ZM16.6125 16.646L16.1707 16.204L16.1707 16.204L16.6125 16.646ZM6.30055 13.7009L5.85869 14.1429L6.30055 13.7009ZM2.51544 5.7551L3.14043 5.75155C3.14032 5.73133 3.13922 5.71113 3.13715 5.69102L2.51544 5.7551ZM14.2495 17.4845L14.3135 16.8628C14.2934 16.8608 14.2732 16.8597 14.253 16.8596L14.2495 17.4845ZM5.87966 8.33333L5.781 7.71617C5.58107 7.74813 5.40901 7.87496 5.31932 8.05649C5.22964 8.23801 5.23344 8.45173 5.32953 8.62995L5.87966 8.33333ZM11.6702 14.1216L11.3738 14.6719C11.552 14.7679 11.7657 14.7716 11.9471 14.682C12.1286 14.5923 12.2554 14.4203 12.2874 14.2204L11.6702 14.1216ZM3.79613 3.835C4.6911 2.94038 6.14223 2.94038 7.03721 3.835L7.92092 2.95094C6.53783 1.5684 4.2955 1.5684 2.91242 2.95094L3.79613 3.835ZM7.03721 3.835C7.93204 4.72949 7.93204 6.17963 7.03721 7.07412L7.92092 7.95818C9.30414 6.5755 9.30414 4.33362 7.92092 2.95094L7.03721 3.835ZM12.9296 12.9649C13.8246 12.0703 15.2757 12.0703 16.1707 12.9649L17.0544 12.0808C15.6713 10.6983 13.429 10.6983 12.0459 12.0808L12.9296 12.9649ZM16.1707 12.9649C17.0655 13.8594 17.0655 15.3095 16.1707 16.204L17.0544 17.0881C18.4376 15.7054 18.4376 13.4635 17.0544 12.0808L16.1707 12.9649ZM6.74241 13.2589C4.38754 10.9049 3.15363 8.0762 3.14043 5.75155L1.89045 5.75865C1.90592 8.4844 3.32743 11.6127 5.85869 14.1429L6.74241 13.2589ZM3.13715 5.69102C3.06875 5.02735 3.2887 4.34223 3.79613 3.835L2.91242 2.95094C2.12766 3.73539 1.7884 4.79716 1.89374 5.81918L3.13715 5.69102ZM16.1707 16.204C15.6632 16.7113 14.9777 16.9312 14.3135 16.8628L14.1854 18.1063C15.2076 18.2115 16.2696 17.8725 17.0544 17.0881L16.1707 16.204ZM14.253 16.8596C11.9272 16.8464 9.09726 15.6128 6.74241 13.2589L5.85869 14.1429C8.38997 16.6732 11.5194 18.0941 14.2459 18.1095L14.253 16.8596ZM7.03721 7.07412C6.68203 7.42916 6.24094 7.64265 5.781 7.71617L5.97832 8.9505C6.68948 8.83681 7.37337 8.50551 7.92092 7.95818L7.03721 7.07412ZM8.8048 11.1973C7.81484 10.2077 7.01903 9.12958 6.42979 8.03672L5.32953 8.62995C5.97819 9.83302 6.84785 11.0085 7.92109 12.0814L8.8048 11.1973ZM12.2874 14.2204C12.3609 13.7608 12.5744 13.3199 12.9296 12.9649L12.0459 12.0808C11.4983 12.6282 11.1668 13.3119 11.0531 14.0229L12.2874 14.2204ZM11.9667 13.5714C10.8733 12.9824 9.79476 12.1869 8.8048 11.1973L7.92109 12.0814C8.99433 13.1542 10.1703 14.0235 11.3738 14.6719L11.9667 13.5714Z" fill="#FFB700"/>
</svg>
