<svg width="16" height="16" viewBox="0 0 16 16" fill="none" xmlns="http://www.w3.org/2000/svg">
<path d="M8.51703 8.02595L14.9549 1.58813C15.0125 1.53053 15.0582 1.46216 15.0893 1.38691C15.1205 1.31166 15.1366 1.23101 15.1366 1.14956C15.1366 1.06811 15.1205 0.987458 15.0893 0.912209C15.0582 0.83696 15.0125 0.768587 14.9549 0.710993C14.8973 0.6534 14.8289 0.607714 14.7537 0.576545C14.6784 0.545376 14.5978 0.529333 14.5163 0.529333C14.4349 0.529333 14.3542 0.545376 14.279 0.576545C14.2037 0.607714 14.1353 0.6534 14.0778 0.710993L7.63989 7.08262L1.20203 0.644795C1.14444 0.587201 1.07606 0.541516 1.00082 0.510346C0.925565 0.479177 0.844913 0.463135 0.763464 0.463135C0.682014 0.463135 0.601362 0.479177 0.526112 0.510346C0.450862 0.541516 0.382488 0.587201 0.324894 0.644795C0.2673 0.702388 0.221615 0.770761 0.190446 0.84601C0.159276 0.92126 0.143233 1.00191 0.143233 1.08336C0.143233 1.16481 0.159276 1.24546 0.190446 1.32071C0.221615 1.39596 0.2673 1.46433 0.324894 1.52193L6.76275 8.02595L0.324894 14.3976C0.266343 14.4546 0.219809 14.5228 0.188036 14.5981C0.156262 14.6735 0.139893 14.7544 0.139893 14.8361C0.139893 14.9179 0.156262 14.9988 0.188036 15.0741C0.219809 15.1495 0.266343 15.2177 0.324894 15.2747C0.379392 15.3341 0.446015 15.3811 0.520253 15.4125C0.594491 15.4439 0.674611 15.459 0.755188 15.4567C0.838247 15.4592 0.920909 15.4443 0.997864 15.413C1.07482 15.3816 1.14436 15.3345 1.20203 15.2747L7.63989 8.83688L14.0778 15.2747C14.1323 15.3341 14.1989 15.3811 14.2731 15.4125C14.3474 15.4439 14.4275 15.459 14.508 15.4567C14.5912 15.4603 14.6742 15.4459 14.7513 15.4145C14.8284 15.3831 14.8979 15.3354 14.9549 15.2747C15.0134 15.2177 15.06 15.1495 15.0918 15.0741C15.1235 14.9988 15.1399 14.9179 15.1399 14.8361C15.1399 14.7544 15.1235 14.6735 15.0918 14.5981C15.06 14.5228 15.0134 14.4546 14.9549 14.3976L8.51703 8.02595Z" fill="#F3F3F5"/>
</svg>
