<svg width="30" height="30" viewBox="0 0 30 30" fill="none" xmlns="http://www.w3.org/2000/svg">
<path d="M3.27015 24.5201C2.65995 25.1303 2.65995 26.1197 3.27015 26.7299C3.88034 27.34 4.86966 27.34 5.47985 26.7299L3.27015 24.5201ZM26.7299 5.47985C27.34 4.86966 27.34 3.88034 26.7299 3.27015C26.1197 2.65995 25.1303 2.65995 24.5201 3.27015L26.7299 5.47985ZM5.47985 26.7299L14.8549 17.3549L12.6451 15.1451L3.27015 24.5201L5.47985 26.7299ZM17.3549 14.8549L26.7299 5.47985L24.5201 3.27015L15.1451 12.6451L17.3549 14.8549Z" fill="white"/>
<path d="M7.75468 2.8125H5.33904C3.99247 2.8125 3.31919 2.8125 3.03768 3.16692C2.94989 3.27745 2.88819 3.40638 2.85719 3.54409C2.75778 3.98565 3.18015 4.50997 4.0249 5.55862L20.9416 26.5586C21.1624 26.8328 21.2728 26.9699 21.4183 27.0562C21.4663 27.0847 21.5168 27.1089 21.5691 27.1284C21.7276 27.1875 21.9037 27.1875 22.2557 27.1875H24.6624C26.0086 27.1875 26.6817 27.1875 26.9632 26.8332C27.0509 26.7226 27.1126 26.5937 27.1437 26.4561C27.2431 26.0146 26.821 25.4903 25.9768 24.4417L9.0691 3.44172C8.84825 3.16741 8.73782 3.03025 8.5923 2.94386C8.54428 2.91535 8.49381 2.89119 8.44149 2.87167C8.28294 2.8125 8.10685 2.8125 7.75468 2.8125Z" fill="white"/>
</svg>
