<?xml version="1.0" encoding="utf-8"?>
<!-- Generator: Adobe Illustrator 25.4.1, SVG Export Plug-In . SVG Version: 6.00 Build 0)  -->
<svg version="1.1" id="Layer_1" xmlns="http://www.w3.org/2000/svg" xmlns:xlink="http://www.w3.org/1999/xlink" x="0px" y="0px"
	 viewBox="0 0 88 16" style="enable-background:new 0 0 88 16;" xml:space="preserve">
<path fill="#f2b43b" d="M3.6,15.4c-0.4,0.2-0.8-0.1-0.7-0.6l0.8-4.7L0.2,6.8C-0.2,6.5,0,5.9,0.5,5.8l4.9-0.7l2.2-4.3c0.2-0.4,0.7-0.4,0.9,0l2.2,4.3
	l4.9,0.7c0.4,0.1,0.6,0.6,0.3,0.9l-3.5,3.4l0.8,4.7c0.1,0.4-0.4,0.8-0.7,0.6L8,13.2L3.6,15.4L3.6,15.4z"/>
<path fill="#f2b43b" d="M21.6,15.4c-0.4,0.2-0.8-0.1-0.7-0.6l0.8-4.7l-3.5-3.4c-0.3-0.3-0.2-0.9,0.3-0.9l4.9-0.7l2.2-4.3c0.2-0.4,0.7-0.4,0.9,0
	l2.2,4.3l4.9,0.7c0.4,0.1,0.6,0.6,0.3,0.9l-3.5,3.4l0.8,4.7c0.1,0.4-0.4,0.8-0.7,0.6L26,13.2L21.6,15.4L21.6,15.4z"/>
<path fill="#f2b43b" d="M39.6,15.4c-0.4,0.2-0.8-0.1-0.7-0.6l0.8-4.7l-3.5-3.4c-0.3-0.3-0.2-0.9,0.3-0.9l4.9-0.7l2.2-4.3c0.2-0.4,0.7-0.4,0.9,0
	l2.2,4.3l4.9,0.7c0.4,0.1,0.6,0.6,0.3,0.9l-3.5,3.4l0.8,4.7c0.1,0.4-0.4,0.8-0.7,0.6L44,13.2L39.6,15.4L39.6,15.4z"/>
<path fill="#f2b43b" d="M57.6,15.4c-0.4,0.2-0.8-0.1-0.7-0.6l0.8-4.7l-3.5-3.4c-0.3-0.3-0.2-0.9,0.3-0.9l4.9-0.7l2.2-4.3c0.2-0.4,0.7-0.4,0.9,0
	l2.2,4.3l4.9,0.7c0.4,0.1,0.6,0.6,0.3,0.9l-3.5,3.4l0.8,4.7c0.1,0.4-0.4,0.8-0.7,0.6L62,13.2L57.6,15.4L57.6,15.4z"/>
<path fill="#f2b43b" d="M75.6,15.4c-0.4,0.2-0.8-0.1-0.7-0.6l0.8-4.7l-3.5-3.4c-0.3-0.3-0.2-0.9,0.3-0.9l4.9-0.7l2.2-4.3c0.2-0.4,0.7-0.4,0.9,0
	l2.2,4.3l4.9,0.7c0.4,0.1,0.6,0.6,0.3,0.9l-3.5,3.4l0.8,4.7c0.1,0.4-0.4,0.8-0.7,0.6L80,13.2L75.6,15.4L75.6,15.4z"/>
</svg>
