<svg width="2100" height="2804" viewBox="0 0 2100 2804" fill="none" xmlns="http://www.w3.org/2000/svg">
<g clip-path="url(#clip0_238_265)">
<mask id="mask0_238_265" style="mask-type:luminance" maskUnits="userSpaceOnUse" x="0" y="0" width="2100" height="2804">
<path d="M2100 0H0V2804H2100V0Z" fill="white"/>
</mask>
<g mask="url(#mask0_238_265)">
<mask id="mask1_238_265" style="mask-type:luminance" maskUnits="userSpaceOnUse" x="0" y="0" width="2100" height="2804">
<path d="M2100 0H0V2804H2100V0Z" fill="white"/>
</mask>
<g mask="url(#mask1_238_265)">
<mask id="mask2_238_265" style="mask-type:luminance" maskUnits="userSpaceOnUse" x="0" y="0" width="2100" height="2804">
<path d="M2100 0H0V2804H2100V0Z" fill="white"/>
</mask>
<g mask="url(#mask2_238_265)">
<mask id="mask3_238_265" style="mask-type:luminance" maskUnits="userSpaceOnUse" x="0" y="0" width="2100" height="2804">
<path d="M2100 0H0V2804H2100V0Z" fill="white"/>
</mask>
<g mask="url(#mask3_238_265)">
<mask id="mask4_238_265" style="mask-type:luminance" maskUnits="userSpaceOnUse" x="0" y="0" width="2100" height="2804">
<path d="M2100 0H0V2804H2100V0Z" fill="white"/>
</mask>
<g mask="url(#mask4_238_265)">
<path d="M1796.36 1936.3H471.191C424.73 1936.3 383.203 1906 370.252 1862.6L151.411 1130.8C151.103 1129.9 151.308 1129 151.925 1128.2C152.542 1127.5 153.364 1127 154.392 1127H1965.97C2035.25 1127 2085.72 1191.1 2067.42 1256.2L1897.92 1860.9C1885.28 1905.3 1843.65 1936.3 1796.36 1936.3ZM158.298 1132.9L376.008 1861C388.24 1901.9 427.403 1930.5 471.191 1930.5H1796.36C1840.97 1930.5 1880.24 1901.3 1891.96 1859.5L2061.46 1254.8C2078.62 1193.5 2031.24 1133 1965.86 1133H158.298V1132.9Z" fill="#FFB700"/>
<path d="M849.35 1934.2L609.13 1130.8C608.616 1129.2 609.542 1127.6 611.186 1127.2C612.831 1126.7 614.475 1127.6 614.887 1129.2L855.209 1932.5C855.723 1934.1 854.798 1935.7 853.154 1936.1C851.612 1936.6 849.864 1935.8 849.35 1934.2Z" fill="#FFB700"/>
<path d="M1042.7 2746.4H917.095C877.007 2746.4 841.852 2721.5 829.62 2684.4L581.897 1934.3C581.383 1932.8 582.308 1931.1 583.85 1930.6C585.494 1930.1 587.139 1931 587.653 1932.5L835.377 2682.6C846.786 2717.3 879.679 2740.6 917.095 2740.6H1042.7C1044.35 2740.6 1045.69 2741.9 1045.69 2743.5C1045.69 2745.1 1044.35 2746.4 1042.7 2746.4Z" fill="#FFB700"/>
<path d="M1770.25 2746.4H1640.73C1600.64 2746.4 1565.49 2721.5 1553.26 2684.4L1305.53 1934.3C1305.02 1932.8 1305.94 1931.1 1307.49 1930.6C1309.13 1930.1 1310.78 1931 1311.29 1932.5L1559.01 2682.6C1570.42 2717.3 1603.32 2740.6 1640.73 2740.6H1770.25C1771.89 2740.6 1773.23 2741.9 1773.23 2743.5C1773.33 2745.1 1771.89 2746.4 1770.25 2746.4Z" fill="#FFB700"/>
<g opacity="0.5">
<path d="M1892.67 2743.5C1892.67 2776.4 1865.23 2803.1 1831.41 2803.1C1797.59 2803.1 1770.14 2776.4 1770.14 2743.5C1770.14 2710.6 1797.59 2683.9 1831.41 2683.9C1865.23 2683.9 1892.67 2710.6 1892.67 2743.5Z" fill="#6A6A6A"/>
</g>
<path d="M1977.16 2746.4H1847.65C1807.56 2746.4 1772.41 2721.5 1760.17 2684.4L1512.45 1934.3C1511.94 1932.8 1512.86 1931.1 1514.4 1930.6C1516.05 1930.1 1517.69 1931 1518.21 1932.5L1765.93 2682.6C1777.34 2717.3 1810.23 2740.6 1847.65 2740.6H1977.16C1978.81 2740.6 1980.14 2741.9 1980.14 2743.5C1980.25 2745.1 1978.91 2746.4 1977.16 2746.4Z" fill="#FFB700"/>
<path d="M2099.59 2743.5C2099.59 2776.4 2072.14 2803.1 2038.32 2803.1C2004.51 2803.1 1977.06 2776.4 1977.06 2743.5C1977.06 2710.6 2004.51 2683.9 2038.32 2683.9C2072.14 2683.9 2099.59 2710.6 2099.59 2743.5Z" fill="#FFB700"/>
<g opacity="0.5">
<path d="M1165.23 2743.5C1165.23 2776.4 1137.78 2803.1 1103.97 2803.1C1070.15 2803.1 1042.7 2776.4 1042.7 2743.5C1042.7 2710.6 1070.15 2683.9 1103.97 2683.9C1137.78 2683.9 1165.23 2710.6 1165.23 2743.5Z" fill="#6A6A6A"/>
</g>
<path d="M1261.13 2746.4H1135.52C1095.43 2746.4 1060.28 2721.5 1048.05 2684.4L800.322 1934.3C799.808 1932.8 800.734 1931.1 802.275 1930.6C803.92 1930.1 805.565 1931 806.079 1932.5L1053.8 2682.6C1065.21 2717.3 1098.1 2740.6 1135.52 2740.6H1261.13C1262.77 2740.6 1264.11 2741.9 1264.11 2743.5C1264.21 2745.1 1262.77 2746.4 1261.13 2746.4Z" fill="#FFB700"/>
<path d="M1383.76 2743.5C1383.76 2776.4 1356.31 2803.1 1322.5 2803.1C1288.68 2803.1 1261.23 2776.4 1261.23 2743.5C1261.23 2710.6 1288.68 2683.9 1322.5 2683.9C1356.31 2683.9 1383.76 2710.6 1383.76 2743.5Z" fill="#FFB700"/>
<path d="M1685.24 1325.6V1721.6C1685.24 1744.5 1666.12 1763.1 1642.58 1763.1C1619.04 1763.1 1599.93 1744.5 1599.93 1721.6V1325.6C1599.93 1302.7 1619.04 1284.1 1642.58 1284.1C1666.23 1284.2 1685.24 1302.7 1685.24 1325.6Z" fill="#FFB700"/>
<path d="M1477.81 1325.6V1721.6C1477.81 1744.5 1458.69 1763.1 1435.15 1763.1C1411.62 1763.1 1392.5 1744.5 1392.5 1721.6V1325.6C1392.5 1302.7 1411.62 1284.1 1435.15 1284.1C1458.8 1284.2 1477.81 1302.7 1477.81 1325.6Z" fill="#FFB700"/>
<path d="M1270.38 1325.6V1721.6C1270.38 1744.5 1251.26 1763.1 1227.72 1763.1C1204.19 1763.1 1185.07 1744.5 1185.07 1721.6V1325.6C1185.07 1302.7 1204.19 1284.1 1227.72 1284.1C1251.26 1284.2 1270.38 1302.7 1270.38 1325.6Z" fill="#FFB700"/>
<path d="M1062.95 1325.6V1721.6C1062.95 1744.5 1043.83 1763.1 1020.29 1763.1C996.756 1763.1 977.637 1744.5 977.637 1721.6V1325.6C977.637 1302.7 996.756 1284.1 1020.29 1284.1C1043.83 1284.2 1062.95 1302.7 1062.95 1325.6Z" fill="#FFB700"/>
<path d="M612.012 1132.9H154.289C153.055 1132.9 152.027 1132.2 151.513 1131.1L5.96267 805.399C-14.3898 759.899 19.8393 708.899 71.0286 708.899H390.808C419.795 708.899 445.492 725.699 456.491 751.799L614.89 1128.8C615.301 1129.7 615.198 1130.7 614.582 1131.5C613.965 1132.4 613.04 1132.9 612.012 1132.9ZM156.242 1127H607.489L450.837 753.999C440.867 730.199 417.225 714.799 390.808 714.799H71.0286C24.2592 714.799 -7.09164 761.399 11.5133 803.099L156.242 1127Z" fill="#FFB700"/>
<path d="M1020.3 999.4V1125.9H678.109V999.4C678.109 991.399 684.791 984.899 693.014 984.899H1005.49C1013.72 984.899 1020.3 991.399 1020.3 999.4Z" fill="#222222"/>
<path d="M1023.38 1132.9H675.125V1003.4C675.125 993.799 683.143 985.999 693.01 985.999H1005.49C1015.36 985.999 1023.38 993.799 1023.38 1003.4V1132.9ZM681.087 1127H1017.31V1003.4C1017.31 996.999 1011.97 991.899 1005.49 991.899H693.01C686.432 991.899 681.19 997.099 681.19 1003.4V1127H681.087Z" fill="#FFB700"/>
<path d="M1781.45 991.899V1129.9H1079.6V991.899C1079.6 973.799 1094.71 959.099 1113.31 959.099H1747.74C1766.34 959.099 1781.45 973.799 1781.45 991.899Z" fill="#222222"/>
<path d="M1784.53 1132.9H1076.72V991.899C1076.72 972.199 1093.17 956.199 1113.42 956.199H1747.84C1768.09 956.199 1784.53 972.199 1784.53 991.899V1132.9ZM1082.68 1127H1778.47V991.899C1778.47 975.499 1764.7 962.099 1747.84 962.099H1113.42C1096.56 962.099 1082.79 975.499 1082.79 991.899V1127H1082.68Z" fill="#FFB700"/>
<path d="M1477.81 911.199V1129.9H944.232V911.199C944.232 898.699 954.614 888.699 967.36 888.699H1454.69C1467.43 888.699 1477.81 898.799 1477.81 911.199Z" fill="#FFB700"/>
<path d="M1480.9 1132.9H941.25V911.199C941.25 897.099 952.968 885.699 967.461 885.699H1454.79C1469.18 885.699 1481 897.099 1481 911.199V1132.9H1480.9ZM947.212 1127H1474.83V911.199C1474.83 900.399 1465.79 891.599 1454.68 891.599H967.359C956.257 891.599 947.212 900.399 947.212 911.199V1127Z" fill="#FFB700"/>
<path d="M338.077 720.899C338.077 730.499 330.06 738.199 320.295 738.199H84.8023C74.9344 738.199 67.0195 730.399 67.0195 720.899C67.0195 711.299 75.0372 703.599 84.8023 703.599H320.295C330.06 703.499 338.077 711.299 338.077 720.899Z" fill="#222222"/>
<path d="M320.193 741.099H84.8039C73.2914 741.099 63.9375 731.999 63.9375 720.799C63.9375 709.599 73.2914 700.499 84.8039 700.499H320.296C331.809 700.499 341.162 709.599 341.162 720.799C341.162 731.999 331.706 741.099 320.193 741.099ZM84.8039 706.499C76.6835 706.499 70.0021 712.999 70.0021 720.899C70.0021 728.799 76.6835 735.299 84.8039 735.299H320.296C328.416 735.299 335.098 728.799 335.098 720.899C335.098 712.999 328.416 706.499 320.296 706.499H84.8039Z" fill="#FFB700"/>
<path d="M1356.51 67.8696L1230.82 226.766L1394.14 349.051L1519.84 190.155L1356.51 67.8696Z" fill="#FFB700"/>
<g opacity="0.5">
<path d="M1340.92 0L1134.82 1.00008L1135.85 201.5L1341.94 200.5L1340.92 0Z" fill="#6A6A6A"/>
</g>
</g>
</g>
</g>
</g>
</g>
</g>
<defs>
<clipPath id="clip0_238_265">
<rect width="2100" height="2804" fill="white"/>
</clipPath>
</defs>
</svg>
